<svg height="512pt" viewBox="0 0 512 512" width="512pt" xmlns="http://www.w3.org/2000/svg"><path d="m48 32h16v16h-16zm0 0"/><path d="m80 32h16v16h-16zm0 0"/><path d="m112 32h16v16h-16zm0 0"/><path d="m416 32h48v16h-48zm0 0"/><path d="m504 0h-496c-4.414062 0-8 3.585938-8 8v496c0 4.414062 3.585938 8 8 8h496c4.414062 0 8-3.585938 8-8v-496c0-4.414062-3.585938-8-8-8zm-488 16h480v48h-480zm0 480v-416h480v416zm0 0"/><path d="m472 96h-432c-4.414062 0-8 3.585938-8 8v144c0 4.414062 3.585938 8 8 8h432c4.414062 0 8-3.585938 8-8v-144c0-4.414062-3.585938-8-8-8zm-8 144h-416v-128h416zm0 0"/><path d="m32 272h80v16h-80zm0 0"/><path d="m128 272h112v16h-112zm0 0"/><path d="m272 272h80v16h-80zm0 0"/><path d="m368 272h112v16h-112zm0 0"/><path d="m32 464h32v16h-32zm0 0"/><path d="m80 464h80v16h-80zm0 0"/><path d="m32 432h80v16h-80zm0 0"/><path d="m128 432h32v16h-32zm0 0"/><path d="m152 304h-112c-4.414062 0-8 3.585938-8 8v96c0 4.414062 3.585938 8 8 8h112c4.414062 0 8-3.585938 8-8v-96c0-4.414062-3.585938-8-8-8zm-8 96h-96v-80h96zm0 0"/><path d="m192 464h32v16h-32zm0 0"/><path d="m240 464h80v16h-80zm0 0"/><path d="m192 432h80v16h-80zm0 0"/><path d="m288 432h32v16h-32zm0 0"/><path d="m312 304h-112c-4.414062 0-8 3.585938-8 8v96c0 4.414062 3.585938 8 8 8h112c4.414062 0 8-3.585938 8-8v-96c0-4.414062-3.585938-8-8-8zm-8 96h-96v-80h96zm0 0"/><path d="m352 464h32v16h-32zm0 0"/><path d="m400 464h80v16h-80zm0 0"/><path d="m352 432h80v16h-80zm0 0"/><path d="m448 432h32v16h-32zm0 0"/><path d="m472 304h-112c-4.414062 0-8 3.585938-8 8v96c0 4.414062 3.585938 8 8 8h112c4.414062 0 8-3.585938 8-8v-96c0-4.414062-3.585938-8-8-8zm-8 96h-96v-80h96zm0 0"/></svg>